<svg width="108" height="24" viewBox="0 0 108 24" fill="none" xmlns="http://www.w3.org/2000/svg">
<path d="M20 11H7.83L13.42 5.41L12 4L4 12L12 20L13.41 18.59L7.83 13H20V11Z" fill="black"/>
<path d="M40.838 16.146C40.334 17.55 39.368 18.252 37.94 18.252C36.476 18.252 35.27 17.7 34.322 16.596C33.338 15.456 32.846 13.998 32.846 12.222C32.846 10.35 33.374 8.85 34.43 7.722C35.45 6.63 36.764 6.084 38.372 6.084C39.464 6.084 40.376 6.324 41.108 6.804C41.852 7.272 42.434 8.016 42.854 9.036L40.676 9.54C40.04 8.52 39.236 8.01 38.264 8.01C37.376 8.01 36.638 8.388 36.05 9.144C35.438 9.912 35.132 10.938 35.132 12.222C35.132 13.434 35.408 14.418 35.96 15.174C36.5 15.918 37.22 16.29 38.12 16.29C38.888 16.29 39.518 16.044 40.01 15.552C40.514 15.048 40.766 14.358 40.766 13.482V13.41L38.138 13.356V11.988H42.8V18H41.072L40.838 16.146ZM50.3376 6.084C51.1176 6.084 51.8316 6.216 52.4796 6.48C53.1276 6.732 53.6856 7.11 54.1536 7.614C55.1376 8.67 55.6296 10.182 55.6296 12.15C55.6296 14.13 55.1376 15.66 54.1536 16.74C53.2176 17.748 51.9396 18.252 50.3196 18.252C48.7116 18.252 47.4396 17.736 46.5036 16.704C45.5196 15.636 45.0276 14.118 45.0276 12.15C45.0276 10.158 45.5196 8.634 46.5036 7.578C47.4276 6.582 48.7056 6.084 50.3376 6.084ZM53.4336 12.186C53.4336 10.842 53.1516 9.81 52.5876 9.09C52.0356 8.358 51.2856 7.992 50.3376 7.992C49.3896 7.992 48.6336 8.358 48.0696 9.09C47.5056 9.81 47.2236 10.842 47.2236 12.186C47.2236 13.518 47.5056 14.544 48.0696 15.264C48.6336 15.972 49.3896 16.326 50.3376 16.326C51.2856 16.326 52.0356 15.972 52.5876 15.264C53.1516 14.544 53.4336 13.518 53.4336 12.186ZM62.6955 6.318H67.4115C68.7075 6.318 69.7095 6.624 70.4175 7.236C71.0895 7.8 71.4255 8.526 71.4255 9.414C71.4255 10.074 71.2395 10.638 70.8675 11.106C70.5075 11.574 69.9975 11.904 69.3375 12.096C69.9975 12.228 70.5435 12.528 70.9755 12.996C71.4075 13.452 71.6235 14.04 71.6235 14.76C71.6235 16.2 70.9095 17.184 69.4815 17.712C68.9415 17.904 68.2575 18 67.4295 18H62.6955V6.318ZM67.3755 16.146C68.0595 16.146 68.5515 16.008 68.8515 15.732C69.1635 15.456 69.3195 15.09 69.3195 14.634C69.3195 14.178 69.1575 13.812 68.8335 13.536C68.5215 13.248 68.0355 13.104 67.3755 13.104H64.8195V16.146H67.3755ZM64.8195 11.25H67.3215C67.9575 11.25 68.4375 11.112 68.7615 10.836C69.0855 10.56 69.2475 10.188 69.2475 9.72C69.2475 9.24 69.0855 8.862 68.7615 8.586C68.4495 8.298 67.9755 8.154 67.3395 8.154H64.8195V11.25ZM77.0674 6.318H79.7314L83.5654 18H81.3154L80.5054 15.48H76.1674L75.3394 18H73.0894L77.0674 6.318ZM76.7074 13.878H79.9834L78.3634 8.856L76.7074 13.878ZM89.8289 6.084C90.5489 6.084 91.1729 6.174 91.7009 6.354C92.2289 6.522 92.6849 6.762 93.0689 7.074C93.8249 7.686 94.3169 8.544 94.5449 9.648L92.2769 10.062C92.0849 9.45 91.7849 8.958 91.3769 8.586C90.9809 8.202 90.4829 8.01 89.8829 8.01C89.0669 8.01 88.4069 8.352 87.9029 9.036C87.3629 9.78 87.0929 10.812 87.0929 12.132C87.0929 13.44 87.3329 14.466 87.8129 15.21C88.2929 15.942 88.9469 16.308 89.7749 16.308C90.6029 16.308 91.2269 16.11 91.6469 15.714C92.0669 15.306 92.2769 14.784 92.2769 14.148H94.5629C94.5629 15.456 94.1429 16.47 93.3029 17.19C92.4749 17.898 91.3349 18.252 89.8829 18.252C88.3349 18.252 87.1049 17.712 86.1929 16.632C85.2689 15.528 84.8069 14.028 84.8069 12.132C84.8069 10.212 85.2809 8.712 86.2289 7.632C87.1409 6.6 88.3409 6.084 89.8289 6.084ZM99.1851 6.318V11.124L103.793 6.318H106.709L101.561 11.574L107.051 18H104.297L100.139 13.05L99.1851 14.022V18H97.0431V6.318H99.1851Z" fill="black"/>
</svg>
